<svg width="56" height="55" viewBox="0 0 56 55" fill="none" xmlns="http://www.w3.org/2000/svg">
<g clip-path="url(#clip0_12161_37755)">
<path d="M23.1923 21.4307C23.162 21.2426 23.1382 21.0307 23.0928 20.821C22.9955 20.3561 23.162 19.9604 23.5858 19.755C23.9296 19.5885 24.282 19.435 24.6453 19.3118C25.1664 19.1345 25.5491 19.3118 25.8604 19.8329C26.4183 20.7691 27.4605 21.1475 28.4637 20.7604C28.9329 20.5788 29.2875 20.2567 29.5405 19.8199C29.8519 19.2837 30.2411 19.1366 30.8227 19.3442C31.1103 19.4458 31.3935 19.5583 31.6681 19.6902C32.2757 19.9821 32.4184 20.3194 32.2389 20.981C31.8562 22.3843 32.9157 23.7529 34.3406 23.6881C34.5417 23.6794 34.7406 23.6232 34.9374 23.5756C35.5341 23.4351 35.9255 23.6189 36.1763 24.1724C36.2974 24.4405 36.4098 24.7108 36.5114 24.9854C36.7363 25.6038 36.5828 25.9973 36.0055 26.3087C34.6541 27.0373 34.4184 28.6957 35.5276 29.753C35.679 29.8979 35.8801 29.9974 36.0639 30.1033C36.559 30.3866 36.7168 30.7909 36.5179 31.3336C36.4141 31.619 36.2995 31.9023 36.1698 32.1769C35.8628 32.8169 35.5147 32.9596 34.8206 32.7542C33.6335 32.3996 32.4378 33.0223 32.1416 34.2072C32.0487 34.5812 32.0811 35.018 32.1676 35.4007C32.3168 36.0645 32.1849 36.4342 31.5622 36.7088C31.3157 36.8191 31.0649 36.9229 30.8097 37.0137C30.1438 37.2537 29.761 37.1002 29.4151 36.4645C28.801 35.3315 27.4151 34.9661 26.3664 35.6969C26.081 35.8958 25.8431 36.1986 25.655 36.4969C25.3393 36.9986 24.9502 37.1672 24.3966 36.9445C24.0615 36.8105 23.7263 36.6721 23.4063 36.5056C22.9458 36.2656 22.7923 35.8634 22.9523 35.3661C23.2096 34.5683 23.082 33.8396 22.5112 33.2255C21.9317 32.6028 21.2074 32.4082 20.3749 32.6158C19.7847 32.765 19.3868 32.5769 19.1425 32.0255C19.0063 31.7163 18.8809 31.4006 18.7727 31.0806C18.6063 30.579 18.7771 30.1725 19.2419 29.9066C20.483 29.1973 20.7749 27.7876 19.8884 26.6827C19.7176 26.4687 19.4668 26.313 19.2376 26.153C18.8484 25.8784 18.6863 25.5086 18.8419 25.0676C18.9803 24.6762 19.149 24.2913 19.3414 23.9237C19.549 23.5259 19.9555 23.3789 20.4052 23.4848C21.7155 23.7983 22.8312 23.1627 23.1274 21.928C23.1642 21.7767 23.1642 21.6145 23.1858 21.4307H23.1923ZM32.226 28.1963C32.226 25.6557 30.2043 23.6297 27.6702 23.6297C25.1469 23.6297 23.1058 25.6535 23.1058 28.1552C23.1058 30.726 25.121 32.7434 27.6832 32.7412C30.1978 32.739 32.2281 30.7066 32.2281 28.1963H32.226Z" fill="#F68427"/>
<path d="M27.6657 7.66829C29.7832 7.66829 31.4998 5.95168 31.4998 3.83414C31.4998 1.7166 29.7832 0 27.6657 0C25.5481 0 23.8315 1.7166 23.8315 3.83414C23.8315 5.95168 25.5481 7.66829 27.6657 7.66829Z" fill="#1C1919"/>
<path d="M27.6657 9.11426C24.1091 9.11426 21.2275 11.9959 21.2275 15.5524V17.4575H34.1039V15.5524C34.1039 11.9959 31.2223 9.11426 27.6657 9.11426Z" fill="#1C1919"/>
<path d="M31.4506 41.9904C31.7899 39.9003 30.3705 37.9308 28.2804 37.5915C26.1902 37.2522 24.2207 38.6716 23.8814 40.7618C23.5421 42.852 24.9615 44.8214 27.0517 45.1607C29.1419 45.5 31.1113 44.0806 31.4506 41.9904Z" fill="#1C1919"/>
<path d="M27.6657 46.6567C24.1091 46.6567 21.2275 49.5383 21.2275 53.0949V55H34.1039V53.0949C34.1039 49.5383 31.2223 46.6567 27.6657 46.6567Z" fill="#1C1919"/>
<path d="M6.43815 26.4398C8.55569 26.4398 10.2723 24.7232 10.2723 22.6056C10.2723 20.4881 8.55569 18.7715 6.43815 18.7715C4.32061 18.7715 2.604 20.4881 2.604 22.6056C2.604 24.7232 4.32061 26.4398 6.43815 26.4398Z" fill="#1C1919"/>
<path d="M6.43817 27.8853C2.8816 27.8853 0 30.7669 0 34.3234V36.2285H12.8763V34.3234C12.8763 30.7669 9.99473 27.8853 6.43817 27.8853Z" fill="#1C1919"/>
<path d="M48.8913 26.4398C51.0088 26.4398 52.7254 24.7232 52.7254 22.6056C52.7254 20.4881 51.0088 18.7715 48.8913 18.7715C46.7737 18.7715 45.0571 20.4881 45.0571 22.6056C45.0571 24.7232 46.7737 26.4398 48.8913 26.4398Z" fill="#1C1919"/>
<path d="M48.8913 27.8853C45.3347 27.8853 42.4531 30.7669 42.4531 34.3234V36.2285H55.3295V34.3234C55.3295 30.7669 52.4479 27.8853 48.8913 27.8853Z" fill="#1C1919"/>
<path d="M15.0392 14.5091L16.8777 12.6706L17.7961 13.5889V19.1027H12.2823L11.364 18.1843L13.2025 16.3458L9.52539 12.6686L11.364 10.8301L15.0411 14.5072L15.0392 14.5091Z" fill="#F68427"/>
<path d="M40.293 14.5091L38.4545 12.6706L37.5361 13.5889V19.1027H43.0499L43.9682 18.1843L42.1297 16.3458L45.8068 12.6686L43.9682 10.8301L40.2911 14.5072L40.293 14.5091Z" fill="#F68427"/>
<path d="M15.0392 42.095L16.8777 43.9336L17.7961 43.0153V37.5015H12.2823L11.364 38.4198L13.2025 40.2584L9.52539 43.9355L11.364 45.7741L15.0411 42.0969L15.0392 42.095Z" fill="#F68427"/>
<path d="M40.293 42.095L38.4545 43.9336L37.5361 43.0153V37.5015H43.0499L43.9682 38.4198L42.1297 40.2584L45.8068 43.9355L43.9682 45.7741L40.2911 42.0969L40.293 42.095Z" fill="#F68427"/>
</g>
<defs>
<clipPath id="clip0_12161_37755">
<rect width="55.3295" height="55" fill="white"/>
</clipPath>
</defs>
</svg>
